<svg xmlns="http://www.w3.org/2000/svg" width="168.96" height="35" viewBox="0 0 168.96 35"><rect class="svg__rect" x="0" y="0" width="91.5" height="35" fill="#000000"/><rect class="svg__rect" x="89.5" y="0" width="79.46000000000001" height="35" fill="#EA4560"/><path class="svg__text" d="M15.70 22L14.22 22L14.22 13.47L17.22 13.47Q18.69 13.47 19.50 14.13Q20.30 14.79 20.30 16.05L20.30 16.05Q20.30 16.90 19.89 17.48Q19.47 18.06 18.73 18.37L18.73 18.37L20.65 21.92L20.65 22L19.06 22L17.35 18.71L15.70 18.71L15.70 22ZM15.70 14.66L15.70 17.52L17.22 17.52Q17.97 17.52 18.39 17.15Q18.82 16.77 18.82 16.11L18.82 16.11Q18.82 15.43 18.43 15.05Q18.04 14.68 17.26 14.66L17.26 14.66L15.70 14.66ZM26.73 18.86L23.87 13.47L25.51 13.47L27.48 17.51L29.44 13.47L31.08 13.47L28.22 18.86L28.22 22L26.73 22L26.73 18.86ZM40.95 22L34.60 22L34.60 21.04L39.01 14.66L34.63 14.66L34.63 13.47L40.81 13.47L40.81 14.41L36.39 20.82L40.95 20.82L40.95 22ZM50.79 22L45.21 22L45.21 13.47L50.74 13.47L50.74 14.66L46.69 14.66L46.69 17.02L50.19 17.02L50.19 18.19L46.69 18.19L46.69 20.82L50.79 20.82L50.79 22ZM56.46 22L54.98 22L54.98 13.47L56.46 13.47L60.28 19.54L60.28 13.47L61.75 13.47L61.75 22L60.27 22L56.46 15.95L56.46 22ZM72.06 19.71L72.06 19.71L73.48 19.71Q73.48 20.28 73.86 20.63Q74.24 20.98 74.88 20.98L74.88 20.98Q75.54 20.98 75.92 20.63Q76.30 20.28 76.30 19.61L76.30 19.61Q76.30 18.94 75.90 18.57Q75.51 18.21 74.72 18.21L74.72 18.21L73.88 18.21L73.88 17.08L74.75 17.08Q75.41 17.08 75.79 16.74Q76.17 16.41 76.17 15.78L76.17 15.78Q76.17 15.17 75.85 14.83Q75.54 14.49 74.88 14.49L74.88 14.49Q74.31 14.49 73.94 14.83Q73.57 15.16 73.57 15.69L73.57 15.69L72.14 15.69Q72.14 15.03 72.49 14.49Q72.84 13.96 73.46 13.65Q74.09 13.35 74.86 13.35L74.86 13.35Q76.14 13.35 76.87 13.99Q77.60 14.63 77.60 15.78L77.60 15.78Q77.60 16.35 77.23 16.86Q76.87 17.37 76.29 17.62L76.29 17.62Q76.99 17.86 77.35 18.38Q77.72 18.89 77.72 19.61L77.72 19.61Q77.72 20.76 76.93 21.44Q76.14 22.12 74.86 22.12L74.86 22.12Q73.63 22.12 72.85 21.46Q72.06 20.80 72.06 19.71Z" fill="#FFFFFF"/><path class="svg__text" d="M102.94 21.34L102.94 21.34L103.80 19.55Q104.30 19.88 104.91 20.07Q105.52 20.25 106.13 20.25L106.13 20.25Q106.73 20.25 107.10 20.01Q107.47 19.78 107.47 19.36L107.47 19.36Q107.47 18.94 107.11 18.72Q106.75 18.51 105.84 18.51L105.84 18.51L103.56 18.51L103.98 13.60L109.33 13.60L109.33 15.44L105.94 15.44L105.84 16.66L106.40 16.66Q108.16 16.66 109.01 17.38Q109.86 18.10 109.86 19.30L109.86 19.30Q109.86 20.08 109.46 20.73Q109.06 21.39 108.23 21.78Q107.41 22.17 106.20 22.17L106.20 22.17Q105.31 22.17 104.44 21.95Q103.57 21.74 102.94 21.34ZM113.57 21.34L113.57 21.34L114.43 19.55Q114.93 19.88 115.54 20.07Q116.16 20.25 116.77 20.25L116.77 20.25Q117.38 20.25 117.74 20.02Q118.10 19.79 118.10 19.37L118.10 19.37Q118.10 18.55 116.81 18.55L116.81 18.55L115.82 18.55L115.82 17.05L117.32 15.44L114.01 15.44L114.01 13.60L120.08 13.60L120.08 15.09L118.34 16.96Q119.38 17.18 119.94 17.82Q120.50 18.46 120.50 19.37L120.50 19.37Q120.50 20.11 120.09 20.75Q119.69 21.39 118.87 21.78Q118.05 22.17 116.84 22.17L116.84 22.17Q115.95 22.17 115.08 21.95Q114.21 21.74 113.57 21.34ZM124.75 17.80L124.75 17.80Q124.75 16.45 125.22 15.46Q125.69 14.46 126.53 13.95Q127.37 13.43 128.45 13.43L128.45 13.43Q129.52 13.43 130.36 13.95Q131.20 14.46 131.67 15.46Q132.15 16.45 132.15 17.80L132.15 17.80Q132.15 19.15 131.67 20.15Q131.20 21.14 130.36 21.65Q129.52 22.17 128.45 22.17L128.45 22.17Q127.37 22.17 126.53 21.65Q125.69 21.14 125.22 20.15Q124.75 19.16 124.75 17.80ZM127.13 17.80L127.13 17.80Q127.13 19.06 127.49 19.64Q127.84 20.22 128.45 20.22L128.45 20.22Q129.05 20.22 129.41 19.64Q129.76 19.06 129.76 17.80L129.76 17.80Q129.76 16.54 129.41 15.96Q129.05 15.38 128.45 15.38L128.45 15.38Q127.84 15.38 127.49 15.96Q127.13 16.54 127.13 17.80ZM136.45 17.80L136.45 17.80Q136.45 16.45 136.92 15.46Q137.39 14.46 138.23 13.95Q139.07 13.43 140.15 13.43L140.15 13.43Q141.22 13.43 142.06 13.95Q142.90 14.46 143.37 15.46Q143.85 16.45 143.85 17.80L143.85 17.80Q143.85 19.15 143.37 20.15Q142.90 21.14 142.06 21.65Q141.22 22.17 140.15 22.17L140.15 22.17Q139.07 22.17 138.23 21.65Q137.39 21.14 136.92 20.15Q136.45 19.16 136.45 17.80ZM138.83 17.80L138.83 17.80Q138.83 19.06 139.19 19.64Q139.54 20.22 140.15 20.22L140.15 20.22Q140.75 20.22 141.11 19.64Q141.46 19.06 141.46 17.80L141.46 17.80Q141.46 16.54 141.11 15.96Q140.75 15.38 140.15 15.38L140.15 15.38Q139.54 15.38 139.19 15.96Q138.83 16.54 138.83 17.80ZM148.51 18.26L148.51 18.26L148.51 13.60L150.89 13.60L150.89 18.19Q150.89 20.20 152.48 20.20L152.48 20.20Q154.06 20.20 154.06 18.19L154.06 18.19L154.06 13.60L156.40 13.60L156.40 18.26Q156.40 20.13 155.36 21.15Q154.32 22.17 152.46 22.17L152.46 22.17Q150.58 22.17 149.54 21.15Q148.51 20.13 148.51 18.26Z" fill="#FFFFFF" x="102.5"/></svg>